<?xml version="1.0" encoding="UTF-8"?>
<!DOCTYPE svg PUBLIC "-//W3C//DTD SVG 1.1//EN" "http://www.w3.org/Graphics/SVG/1.1/DTD/svg11.dtd">
<svg xmlns="http://www.w3.org/2000/svg" version="1.1" width="24px" height="24px" style="shape-rendering:geometricPrecision; text-rendering:geometricPrecision; image-rendering:optimizeQuality; fill-rule:evenodd; clip-rule:evenodd" xmlns:xlink="http://www.w3.org/1999/xlink">
<g><path style="opacity:0.784" fill="#000000" d="M 9.5,1.5 C 12.5584,1.71182 15.0584,3.04515 17,5.5C 17.1843,9.65044 18.0176,13.6504 19.5,17.5C 17.604,18.4656 15.604,18.7989 13.5,18.5C 13.5,19.5 13.5,20.5 13.5,21.5C 12.1667,21.5 10.8333,21.5 9.5,21.5C 9.5,20.5 9.5,19.5 9.5,18.5C 7.39605,18.7989 5.39605,18.4656 3.5,17.5C 4.9824,13.6504 5.81573,9.65044 6,5.5C 7.62678,4.46773 8.79345,3.1344 9.5,1.5 Z M 9.5,6.5 C 11.1439,6.28649 12.6439,6.61983 14,7.5C 15.2886,10.3508 15.7886,13.3508 15.5,16.5C 12.8333,16.5 10.1667,16.5 7.5,16.5C 7.15236,12.9153 7.81903,9.582 9.5,6.5 Z"/></g>
</svg>
