<?xml version="1.0" encoding="UTF-8"?>
<!DOCTYPE svg PUBLIC "-//W3C//DTD SVG 1.1//EN" "http://www.w3.org/Graphics/SVG/1.1/DTD/svg11.dtd">
<svg xmlns="http://www.w3.org/2000/svg" version="1.1" width="64px" height="64px" style="shape-rendering:geometricPrecision; text-rendering:geometricPrecision; image-rendering:optimizeQuality; fill-rule:evenodd; clip-rule:evenodd" xmlns:xlink="http://www.w3.org/1999/xlink">
<g><path style="opacity:0.935" fill="#70c1ff" d="M 14.5,4.5 C 16.3464,4.22216 17.6798,4.88882 18.5,6.5C 16.517,8.98375 14.3504,11.3171 12,13.5C 10.3903,17.0607 8.55701,20.3941 6.5,23.5C 5.11947,23.0004 4.4528,22.0004 4.5,20.5C 6.31492,14.2005 9.64826,8.86719 14.5,4.5 Z"/></g>
<g><path style="opacity:0.913" fill="#70c1ff" d="M 45.5,4.5 C 52.641,7.39741 56.9743,12.7307 58.5,20.5C 58.2917,23.1848 57.125,23.8515 55,22.5C 53.4152,16.3293 50.0819,11.3293 45,7.5C 44.5304,6.42317 44.6971,5.42317 45.5,4.5 Z"/></g>
<g><path style="opacity:0.927" fill="#454b54" d="M 39.5,53.5 C 34.1667,52.1667 28.8333,52.1667 23.5,53.5C 19.0329,53.8674 14.6996,53.3674 10.5,52C 8.60665,49.0828 8.10665,45.9162 9,42.5C 10.75,33.4863 13.4167,24.8196 17,16.5C 26.6667,7.16667 36.3333,7.16667 46,16.5C 50.7177,27.0366 53.3844,38.0366 54,49.5C 53.6258,50.4162 53.1258,51.2496 52.5,52C 48.3004,53.3674 43.9671,53.8674 39.5,53.5 Z"/></g>
<g><path style="opacity:1" fill="#f8f9f9" d="M 25.5,13.5 C 35.5002,11.5795 42.3336,15.2462 46,24.5C 47.7553,31.688 49.5887,38.8547 51.5,46C 51.2196,47.395 50.5529,48.5617 49.5,49.5C 37.8796,50.6452 26.2129,50.8119 14.5,50C 12.7769,49.2249 11.7769,47.8916 11.5,46C 13.5887,37.8117 15.7554,29.645 18,21.5C 20.0282,18.3078 22.5282,15.6411 25.5,13.5 Z"/></g>
<g><path style="opacity:0.879" fill="#e5e6e8" d="M 39.5,53.5 C 39.0679,54.7095 38.4013,55.7095 37.5,56.5C 33.4868,57.7052 29.4868,57.7052 25.5,56.5C 24.5987,55.7095 23.9321,54.7095 23.5,53.5C 28.8333,52.1667 34.1667,52.1667 39.5,53.5 Z"/></g>
<g><path style="opacity:0.938" fill="#454c55" d="M 25.5,56.5 C 29.4868,57.7052 33.4868,57.7052 37.5,56.5C 36.981,59.7749 34.981,61.1083 31.5,60.5C 28.019,61.1083 26.019,59.7749 25.5,56.5 Z"/></g>
</svg>
