<?xml version="1.0" encoding="UTF-8"?>
<!DOCTYPE svg PUBLIC "-//W3C//DTD SVG 1.1//EN" "http://www.w3.org/Graphics/SVG/1.1/DTD/svg11.dtd">
<svg xmlns="http://www.w3.org/2000/svg" version="1.1" width="64px" height="64px" style="shape-rendering:geometricPrecision; text-rendering:geometricPrecision; image-rendering:optimizeQuality; fill-rule:evenodd; clip-rule:evenodd" xmlns:xlink="http://www.w3.org/1999/xlink">
<g><path style="opacity:0.866" fill="#495058" d="M 14.5,41.5 C 25.4224,40.9552 36.4224,40.1219 47.5,39C 51.2754,30.8408 53.9421,22.3408 55.5,13.5C 40.5,13.5 25.5,13.5 10.5,13.5C 10.5,22.8333 10.5,32.1667 10.5,41.5C 10.4208,42.9305 10.7542,44.2638 11.5,45.5C 20.8096,46.4983 30.1429,46.8316 39.5,46.5C 39.5,47.8333 39.5,49.1667 39.5,50.5C 29.4944,50.6665 19.4944,50.4998 9.5,50C 9,49.5 8.5,49 8,48.5C 7.5001,35.1708 7.33344,21.8375 7.5,8.5C 5.83333,8.5 4.16667,8.5 2.5,8.5C 2.5,7.16667 2.5,5.83333 2.5,4.5C 5.16667,4.5 7.83333,4.5 10.5,4.5C 10.5,6.16667 10.5,7.83333 10.5,9.5C 25.837,9.33341 41.1703,9.50008 56.5,10C 58.6648,11.1607 59.6648,12.994 59.5,15.5C 57.4355,24.8663 54.1022,33.6996 49.5,42C 43.4374,43.1258 37.2707,43.6258 31,43.5C 25.1238,43.4952 19.6238,42.8286 14.5,41.5 Z"/></g>
<g><path style="opacity:1" fill="#fcfcfc" d="M 14.5,41.5 C 13.1667,41.5 11.8333,41.5 10.5,41.5C 10.5,32.1667 10.5,22.8333 10.5,13.5C 25.5,13.5 40.5,13.5 55.5,13.5C 53.9421,22.3408 51.2754,30.8408 47.5,39C 36.4224,40.1219 25.4224,40.9552 14.5,41.5 Z"/></g>
<g><path style="opacity:0.994" fill="#454b54" d="M 15.5,63.5 C 13.5,63.5 11.5,63.5 9.5,63.5C 7.56799,60.8231 7.06799,57.8231 8,54.5C 15.5216,50.6751 18.5216,53.0084 17,61.5C 16.2828,62.0442 15.7828,62.7109 15.5,63.5 Z"/></g>
<g><path style="opacity:0.994" fill="#454b54" d="M 40.5,63.5 C 38.5,63.5 36.5,63.5 34.5,63.5C 32.568,60.8231 32.068,57.8231 33,54.5C 40.5216,50.6751 43.5216,53.0084 42,61.5C 41.2828,62.0442 40.7828,62.7109 40.5,63.5 Z"/></g>
<g><path style="opacity:1" fill="#f0f1f1" d="M 10.5,56.5 C 11.8333,56.5 13.1667,56.5 14.5,56.5C 14.5,57.5 14.5,58.5 14.5,59.5C 13.1667,59.5 11.8333,59.5 10.5,59.5C 10.5,58.5 10.5,57.5 10.5,56.5 Z"/></g>
<g><path style="opacity:1" fill="#f0f1f1" d="M 35.5,56.5 C 36.8333,56.5 38.1667,56.5 39.5,56.5C 39.5,57.5 39.5,58.5 39.5,59.5C 38.1667,59.5 36.8333,59.5 35.5,59.5C 35.5,58.5 35.5,57.5 35.5,56.5 Z"/></g>
</svg>
