<?xml version="1.0" encoding="UTF-8"?>
<!DOCTYPE svg PUBLIC "-//W3C//DTD SVG 1.1//EN" "http://www.w3.org/Graphics/SVG/1.1/DTD/svg11.dtd">
<svg xmlns="http://www.w3.org/2000/svg" version="1.1" width="100px" height="100px" style="shape-rendering:geometricPrecision; text-rendering:geometricPrecision; image-rendering:optimizeQuality; fill-rule:evenodd; clip-rule:evenodd" xmlns:xlink="http://www.w3.org/1999/xlink">
<g><path style="opacity:0.704" fill="#000000" d="M 16.5,22.5 C 39.2574,22.0211 61.924,22.5211 84.5,24C 86.0488,25.214 87.2155,26.714 88,28.5C 88.966,43.2601 88.6326,57.9267 87,72.5C 85.786,74.0488 84.286,75.2155 82.5,76C 59.745,76.9784 37.0784,76.6451 14.5,75C 12.9512,73.786 11.7845,72.286 11,70.5C 10.3333,56.5 10.3333,42.5 11,28.5C 12.3597,25.9774 14.193,23.9774 16.5,22.5 Z M 21.5,24.5 C 41.5542,24.0484 61.5542,24.5484 81.5,26C 70.6875,34.6447 60.0209,43.4781 49.5,52.5C 38.9791,43.4781 28.3125,34.6447 17.5,26C 19.0581,25.79 20.3915,25.29 21.5,24.5 Z M 15.5,27.5 C 26.8402,36.5087 38.1736,45.5087 49.5,54.5C 60.7853,45.7217 71.952,36.7217 83,27.5C 84.8871,29.0261 85.8871,31.0261 86,33.5C 86.9148,45.5578 86.5814,57.5578 85,69.5C 84.3333,70.1667 83.6667,70.8333 83,71.5C 75.6555,65.4864 68.3221,59.4864 61,53.5C 59.1739,54.0104 59.0072,54.8438 60.5,56C 67.5,61.6667 74.5,67.3333 81.5,73C 70.8887,74.1188 60.222,74.6188 49.5,74.5C 38.778,74.6188 28.1113,74.1188 17.5,73C 25.0047,66.9917 32.338,60.8251 39.5,54.5C 38.635,53.4173 37.635,53.2506 36.5,54C 29.9457,60.1888 23.1124,66.0222 16,71.5C 15.3333,70.8333 14.6667,70.1667 14,69.5C 12.4186,57.5578 12.0852,45.5578 13,33.5C 13.2359,31.1887 14.0693,29.1887 15.5,27.5 Z"/></g>
</svg>
