<?xml version="1.0" encoding="UTF-8"?>
<!DOCTYPE svg PUBLIC "-//W3C//DTD SVG 1.1//EN" "http://www.w3.org/Graphics/SVG/1.1/DTD/svg11.dtd">
<svg xmlns="http://www.w3.org/2000/svg" version="1.1" width="100px" height="100px" style="shape-rendering:geometricPrecision; text-rendering:geometricPrecision; image-rendering:optimizeQuality; fill-rule:evenodd; clip-rule:evenodd" xmlns:xlink="http://www.w3.org/1999/xlink">
<g><path style="opacity:0.749" fill="#fffcf4" d="M 76.5,33.5 C 76.1858,29.4125 75.1858,25.5792 73.5,22C 57.9256,21.1762 42.4256,21.3429 27,22.5C 26.3333,40.1667 26.3333,57.8333 27,75.5C 29.0505,73.1122 31.3838,71.1122 34,69.5C 36.4472,72.0323 39.1139,74.3657 42,76.5C 45,74.1667 48,71.8333 51,69.5C 53.9676,71.6309 56.801,73.9642 59.5,76.5C 62.199,73.9642 65.0324,71.6309 68,69.5C 69.683,71.3505 71.5163,73.0172 73.5,74.5C 73.56,75.0431 73.8933,75.3764 74.5,75.5C 75.4987,64.8541 75.832,54.1874 75.5,43.5C 75.5,42.8333 75.8333,42.5 76.5,42.5C 77.1662,48.4907 77.4996,54.6574 77.5,61C 77.6499,67.6635 77.1499,74.1635 76,80.5C 73.3333,77.8333 70.6667,75.1667 68,72.5C 65.3176,75.3497 62.4843,78.0164 59.5,80.5C 56.5157,78.0164 53.6824,75.3497 51,72.5C 47.7026,74.7954 44.7026,77.462 42,80.5C 39.3604,77.8604 36.6937,75.1937 34,72.5C 31.2974,75.538 28.2974,78.2046 25,80.5C 23.8435,70.6547 23.3435,60.6547 23.5,50.5C 23.6667,40.8333 23.8333,31.1667 24,21.5C 24.5,21 25,20.5 25.5,20C 42.1667,19.3333 58.8333,19.3333 75.5,20C 76,20.5 76.5,21 77,21.5C 77.8119,25.6888 77.6453,29.6888 76.5,33.5 Z"/></g>
<g><path style="opacity:1" fill="#fdc730" d="M 76.5,33.5 C 76.5,34.1667 76.5,34.8333 76.5,35.5C 75.3143,36.7054 75.3143,38.0387 76.5,39.5C 76.5,40.5 76.5,41.5 76.5,42.5C 75.8333,42.5 75.5,42.8333 75.5,43.5C 74.8333,53.8333 74.1667,64.1667 73.5,74.5C 71.5163,73.0172 69.683,71.3505 68,69.5C 65.0324,71.6309 62.199,73.9642 59.5,76.5C 56.801,73.9642 53.9676,71.6309 51,69.5C 48,71.8333 45,74.1667 42,76.5C 39.1139,74.3657 36.4472,72.0323 34,69.5C 31.3838,71.1122 29.0505,73.1122 27,75.5C 26.3333,57.8333 26.3333,40.1667 27,22.5C 42.4256,21.3429 57.9256,21.1762 73.5,22C 75.1858,25.5792 76.1858,29.4125 76.5,33.5 Z"/></g>
<g><path style="opacity:0.566" fill="#fefdf9" d="M 76.5,35.5 C 77.8333,36.8333 77.8333,38.1667 76.5,39.5C 75.3143,38.0387 75.3143,36.7054 76.5,35.5 Z"/></g>
<g><path style="opacity:1" fill="#fddb72" d="M 75.5,43.5 C 75.832,54.1874 75.4987,64.8541 74.5,75.5C 73.8933,75.3764 73.56,75.0431 73.5,74.5C 74.1667,64.1667 74.8333,53.8333 75.5,43.5 Z"/></g>
<g><path style="opacity:1" fill="#ffecb8" d="M 65.5,46.5 C 69.8357,45.9523 70.8357,47.1189 68.5,50C 71.4509,52.9705 71.1176,55.4705 67.5,57.5C 64.0452,56.5741 63.7119,55.0741 66.5,53C 64.5513,51.0153 64.2179,48.8487 65.5,46.5 Z"/></g>
</svg>
