<?xml version="1.0" encoding="UTF-8"?>
<!DOCTYPE svg PUBLIC "-//W3C//DTD SVG 1.1//EN" "http://www.w3.org/Graphics/SVG/1.1/DTD/svg11.dtd">
<svg xmlns="http://www.w3.org/2000/svg" version="1.1" width="50px" height="50px" style="shape-rendering:geometricPrecision; text-rendering:geometricPrecision; image-rendering:optimizeQuality; fill-rule:evenodd; clip-rule:evenodd" xmlns:xlink="http://www.w3.org/1999/xlink">
<g><path style="opacity:0.615" fill="#000000" d="M 17.5,1.5 C 41.1541,0.318958 50.6541,11.319 46,34.5C 38.7573,46.8068 28.2573,50.6402 14.5,46C 2.19317,38.7573 -1.64016,28.2573 3,14.5C 6.16246,8.16411 10.9958,3.83077 17.5,1.5 Z M 18.5,4.5 C 36.9488,3.44852 45.4488,12.1152 44,30.5C 38.1981,42.9824 28.6981,47.1491 15.5,43C 4.9871,36.4639 1.82043,27.2972 6,15.5C 9.1476,10.5094 13.3143,6.84275 18.5,4.5 Z M 22.5,13.5 C 26.6971,13.1937 28.6971,15.1937 28.5,19.5C 25.8333,19.5 23.1667,19.5 20.5,19.5C 20.6036,17.2972 21.2702,15.2972 22.5,13.5 Z M 17.5,21.5 C 22.1785,21.3342 26.8452,21.5008 31.5,22C 32.6219,25.4085 32.7886,28.9085 32,32.5C 27.2523,33.6349 22.419,33.8015 17.5,33C 16.1998,29.1675 16.1998,25.3342 17.5,21.5 Z"/></g>
<g><path style="opacity:0.843" fill="#000000" d="M 20.5,10.5 C 28.3268,8.6636 31.6602,11.6636 30.5,19.5C 31.8333,19.5 33.1667,19.5 34.5,19.5C 34.5,24.8333 34.5,30.1667 34.5,35.5C 27.8333,35.5 21.1667,35.5 14.5,35.5C 14.5,30.1667 14.5,24.8333 14.5,19.5C 15.8333,19.5 17.1667,19.5 18.5,19.5C 18.0653,16.1625 18.7319,13.1625 20.5,10.5 Z M 22.5,13.5 C 21.2702,15.2972 20.6036,17.2972 20.5,19.5C 23.1667,19.5 25.8333,19.5 28.5,19.5C 28.6971,15.1937 26.6971,13.1937 22.5,13.5 Z M 17.5,21.5 C 16.1998,25.3342 16.1998,29.1675 17.5,33C 22.419,33.8015 27.2523,33.6349 32,32.5C 32.7886,28.9085 32.6219,25.4085 31.5,22C 26.8452,21.5008 22.1785,21.3342 17.5,21.5 Z"/></g>
<g><path style="opacity:0.799" fill="#000000" d="M 22.5,24.5 C 23.8333,24.5 25.1667,24.5 26.5,24.5C 25.1667,32.5 23.8333,32.5 22.5,24.5 Z"/></g>
</svg>
