<?xml version="1.0" encoding="UTF-8"?>
<!DOCTYPE svg PUBLIC "-//W3C//DTD SVG 1.1//EN" "http://www.w3.org/Graphics/SVG/1.1/DTD/svg11.dtd">
<svg xmlns="http://www.w3.org/2000/svg" version="1.1" width="50px" height="50px" style="shape-rendering:geometricPrecision; text-rendering:geometricPrecision; image-rendering:optimizeQuality; fill-rule:evenodd; clip-rule:evenodd" xmlns:xlink="http://www.w3.org/1999/xlink">
<g><path style="opacity:0.761" fill="#000000" d="M 17.5,-0.5 C 22.1667,-0.5 26.8333,-0.5 31.5,-0.5C 31.5,1.16667 31.5,2.83333 31.5,4.5C 35.226,4.17744 38.8927,4.51078 42.5,5.5C 41.3372,7.2852 40.6705,9.2852 40.5,11.5C 39.5829,24.2635 38.2495,36.9302 36.5,49.5C 28.5,49.5 20.5,49.5 12.5,49.5C 10.4535,35.2814 9.1202,20.9481 8.5,6.5C 7.32496,6.71901 6.32496,6.38568 5.5,5.5C 9.44539,4.50909 13.4454,4.17575 17.5,4.5C 17.5,2.83333 17.5,1.16667 17.5,-0.5 Z M 20.5,1.5 C 23.1873,1.33591 25.854,1.50258 28.5,2C 28.9574,2.41395 29.2907,2.91395 29.5,3.5C 26.1667,4.83333 22.8333,4.83333 19.5,3.5C 19.8627,2.81654 20.1961,2.14987 20.5,1.5 Z M 11.5,6.5 C 20.1667,6.5 28.8333,6.5 37.5,6.5C 36.7847,19.8682 35.6181,33.2015 34,46.5C 27.6667,47.8333 21.3333,47.8333 15,46.5C 13.3819,33.2015 12.2153,19.8682 11.5,6.5 Z"/></g>
<g><path style="opacity:0.987" fill="#000000" d="M 17.5,9.5 C 18.8291,14.9597 19.4958,20.793 19.5,27C 19.1667,32.8333 18.8333,38.6667 18.5,44.5C 17.5011,32.8523 17.1678,21.1857 17.5,9.5 Z"/></g>
<g><path style="opacity:0.987" fill="#000000" d="M 23.5,9.5 C 24.8291,14.9597 25.4958,20.793 25.5,27C 25.1667,32.8333 24.8333,38.6667 24.5,44.5C 23.5011,32.8523 23.1678,21.1857 23.5,9.5 Z"/></g>
<g><path style="opacity:0.987" fill="#000000" d="M 29.5,9.5 C 30.8291,14.9597 31.4958,20.793 31.5,27C 31.1667,32.8333 30.8333,38.6667 30.5,44.5C 29.5011,32.8523 29.1678,21.1857 29.5,9.5 Z"/></g>
</svg>
